<svg width="80" height="80" viewBox="63.666 63.666 80 80" fill="none" xmlns="http://www.w3.org/2000/svg">
<g filter="url(#filter0_dd_315_3881)">
<path d="M103.666 126.333C116.185 126.333 126.333 116.185 126.333 103.666C126.333 91.1481 116.185 81 103.666 81C91.1481 81 81 91.1481 81 103.666C81 116.185 91.1481 126.333 103.666 126.333Z" fill="url(#paint0_linear_315_3881)"/>
<g clip-path="url(#clip0_315_3881)">
<path fill-rule="evenodd" clip-rule="evenodd" d="M108.556 90.3501C109.059 90.3501 109.467 90.7577 109.467 91.2605V93.0812H111.288C111.79 93.0812 112.198 93.4887 112.198 93.9915C112.198 94.4943 111.79 94.9019 111.288 94.9019H109.467V96.7226C109.467 97.2254 109.059 97.633 108.556 97.633C108.054 97.633 107.646 97.2254 107.646 96.7226V94.9019H105.825C105.323 94.9019 104.915 94.4943 104.915 93.9915C104.915 93.4887 105.323 93.0812 105.825 93.0812H107.646V91.2605C107.646 90.7577 108.054 90.3501 108.556 90.3501ZM101.273 96.7401L98.9722 102.985C98.88 103.235 98.6829 103.433 98.4327 103.525L92.1875 105.826L98.4327 108.127C98.6829 108.22 98.88 108.417 98.9722 108.667L101.273 114.912L103.575 108.667C103.667 108.417 103.864 108.22 104.114 108.127L110.359 105.826L104.114 103.525C103.864 103.433 103.667 103.235 103.575 102.985L101.273 96.7401ZM100.238 95.2274C100.542 95.0156 100.903 94.9021 101.273 94.9021C101.644 94.9021 102.005 95.0156 102.309 95.2274C102.613 95.4391 102.845 95.7389 102.973 96.0864L105.138 101.962L111.013 104.126C111.36 104.255 111.66 104.486 111.872 104.79C112.084 105.094 112.197 105.456 112.197 105.826C112.197 106.196 112.084 106.558 111.872 106.862C111.66 107.166 111.36 107.397 111.013 107.526L105.138 109.691L102.973 115.565C102.845 115.913 102.613 116.213 102.309 116.425C102.005 116.637 101.644 116.75 101.273 116.75C100.903 116.75 100.542 116.637 100.238 116.425C99.9339 116.213 99.7022 115.913 99.5739 115.566L97.409 109.691L91.5344 107.526C91.1869 107.398 90.8866 107.166 90.6749 106.862C90.4631 106.558 90.3496 106.196 90.3496 105.826C90.3496 105.456 90.4631 105.094 90.6749 104.79C90.8866 104.486 91.1864 104.255 91.5339 104.127L97.409 101.962L99.5738 96.0869C99.702 95.7394 99.9339 95.4391 100.238 95.2274ZM114.019 96.7226C114.521 96.7226 114.929 97.1302 114.929 97.633V98.5433H115.839C116.342 98.5433 116.75 98.9509 116.75 99.4536C116.75 99.9565 116.342 100.364 115.839 100.364H114.929V101.274C114.929 101.777 114.521 102.185 114.019 102.185C113.516 102.185 113.108 101.777 113.108 101.274V100.364H112.198C111.695 100.364 111.288 99.9565 111.288 99.4536C111.288 98.9509 111.695 98.5433 112.198 98.5433H113.108V97.633C113.108 97.1302 113.516 96.7226 114.019 96.7226Z" fill="url(#paint1_linear_315_3881)"/>
</g>
</g>
<defs>
<filter id="filter0_dd_315_3881" x="63.666" y="63.666" width="80" height="80" filterUnits="userSpaceOnUse" color-interpolation-filters="sRGB">
<feFlood flood-opacity="0" result="BackgroundImageFix"/>
<feColorMatrix in="SourceAlpha" type="matrix" values="0 0 0 0 0 0 0 0 0 0 0 0 0 0 0 0 0 0 127 0" result="hardAlpha"/>
<feOffset/>
<feGaussianBlur stdDeviation="8"/>
<feComposite in2="hardAlpha" operator="out"/>
<feColorMatrix type="matrix" values="0 0 0 0 0.992157 0 0 0 0 0.941176 0 0 0 0 0.960784 0 0 0 0.8 0"/>
<feBlend mode="normal" in2="BackgroundImageFix" result="effect1_dropShadow_315_3881"/>
<feColorMatrix in="SourceAlpha" type="matrix" values="0 0 0 0 0 0 0 0 0 0 0 0 0 0 0 0 0 0 127 0" result="hardAlpha"/>
<feOffset/>
<feGaussianBlur stdDeviation="12"/>
<feComposite in2="hardAlpha" operator="out"/>
<feColorMatrix type="matrix" values="0 0 0 0 0.898039 0 0 0 0 0.8 0 0 0 0 0.996078 0 0 0 0.6 0"/>
<feBlend mode="normal" in2="effect1_dropShadow_315_3881" result="effect2_dropShadow_315_3881"/>
<feBlend mode="normal" in="SourceGraphic" in2="effect2_dropShadow_315_3881" result="shape"/>
</filter>
<linearGradient id="paint0_linear_315_3881" x1="103.666" y1="81" x2="103.666" y2="126.333" gradientUnits="userSpaceOnUse">
<stop stop-color="#FFF0F5"/>
<stop offset="0.25" stop-color="#E6CCFF"/>
<stop offset="0.5" stop-color="#B0E0E6"/>
<stop offset="0.75" stop-color="#F5DEB3"/>
<stop offset="1" stop-color="#FFF0F5"/>
</linearGradient>
<linearGradient id="paint1_linear_315_3881" x1="100.525" y1="95.5751" x2="106.575" y2="112.35" gradientUnits="userSpaceOnUse">
<stop stop-color="white"/>
<stop offset="0.33" stop-color="#888888"/>
<stop offset="0.66" stop-color="#404040"/>
<stop offset="1" stop-color="#F0F0F0"/>
</linearGradient>
<clipPath id="clip0_315_3881">
<rect width="26.4" height="26.4" fill="white" transform="translate(90.3496 90.3501)"/>
</clipPath>
</defs>
</svg>
