<svg width="24" height="23" viewBox="0 0 24 23" fill="none" xmlns="http://www.w3.org/2000/svg">
<path fill-rule="evenodd" clip-rule="evenodd" d="M18.6739 22.7463C18.4843 22.7463 18.2935 22.7019 18.1183 22.6107L11.9994 19.4138L5.88173 22.6107C5.47612 22.8207 4.98652 22.7847 4.61931 22.5159C4.24971 22.2471 4.0661 21.7923 4.14411 21.3423L5.30932 14.5886L0.365259 9.80652C0.0364551 9.48851 -0.0823464 9.01091 0.0580553 8.5741C0.198457 8.1397 0.574062 7.82169 1.02767 7.75689L7.86775 6.76328L10.9254 0.612007C11.331 -0.204002 12.669 -0.204002 13.0746 0.612007L16.1323 6.76328L22.9723 7.75689C23.4259 7.82169 23.8015 8.1397 23.9419 8.5741C24.0823 9.01091 23.9635 9.48851 23.6347 9.80652L18.6907 14.5886L19.8559 21.3423C19.9339 21.7923 19.7491 22.2471 19.3807 22.5159C19.1719 22.6695 18.9235 22.7463 18.6739 22.7463" fill="#171717"/>
</svg>
