<svg width="24" height="24" viewBox="0 0 24 24" fill="none" xmlns="http://www.w3.org/2000/svg">
<path d="M12 2C17.5228 2 22 6.47715 22 12C22 17.5228 17.5228 22 12 22C6.47715 22 2 17.5228 2 12C2 6.47715 6.47715 2 12 2ZM16.5 7C16.3673 7 16.2403 7.05266 16.1465 7.14648L12 11.293L7.85352 7.14648C7.7597 7.05266 7.63268 7 7.5 7C7.36732 7 7.2403 7.05266 7.14648 7.14648C7.05266 7.2403 7 7.36732 7 7.5C7 7.63268 7.05266 7.7597 7.14648 7.85352L11.293 12L7.14648 16.1465C7.05266 16.2403 7 16.3673 7 16.5C7 16.6327 7.05266 16.7597 7.14648 16.8535C7.2403 16.9473 7.36732 17 7.5 17C7.63268 17 7.7597 16.9473 7.85352 16.8535L12 12.707L16.1465 16.8535C16.1929 16.9 16.2479 16.9368 16.3086 16.9619C16.3693 16.9871 16.4343 17 16.5 17C16.5657 17 16.6307 16.9871 16.6914 16.9619C16.7521 16.9368 16.8071 16.9 16.8535 16.8535C16.9 16.8071 16.9368 16.7521 16.9619 16.6914C16.9871 16.6307 17 16.5657 17 16.5C17 16.4343 16.9871 16.3693 16.9619 16.3086C16.9368 16.2479 16.9 16.1929 16.8535 16.1465L12.707 12L16.8535 7.85352C16.9473 7.7597 17 7.63268 17 7.5C17 7.36732 16.9473 7.2403 16.8535 7.14648C16.7597 7.05266 16.6327 7 16.5 7Z" fill="#FF362A"/>
</svg>
