<svg width="24" height="24" viewBox="0 0 24 24" fill="none" xmlns="http://www.w3.org/2000/svg">
<path d="M15.4768 12.8899L16.9918 21.4159C17.0088 21.5163 16.9946 21.6195 16.9513 21.7117C16.9081 21.8038 16.8378 21.8806 16.7497 21.9317C16.6617 21.9828 16.56 22.0058 16.4585 21.9976C16.357 21.9894 16.2604 21.9505 16.1817 21.8859L12.6018 19.1989C12.429 19.0698 12.219 19 12.0033 19C11.7876 19 11.5776 19.0698 11.4048 19.1989L7.81875 21.8849C7.74007 21.9493 7.64361 21.9882 7.54225 21.9964C7.44088 22.0046 7.33942 21.9817 7.25141 21.9308C7.1634 21.8798 7.09303 21.8032 7.04967 21.7112C7.00631 21.6192 6.99204 21.5162 7.00875 21.4159L8.52275 12.8899" stroke="#512EAB" stroke-width="2" stroke-linecap="round" stroke-linejoin="round"/>
<path d="M12 14C15.3137 14 18 11.3137 18 8C18 4.68629 15.3137 2 12 2C8.68629 2 6 4.68629 6 8C6 11.3137 8.68629 14 12 14Z" stroke="#512EAB" stroke-width="2" stroke-linecap="round" stroke-linejoin="round"/>
</svg>
