<svg width="28" height="28" viewBox="0 0 28 28" fill="none" xmlns="http://www.w3.org/2000/svg">
<path d="M14 4C12.0222 4 10.0888 4.58649 8.4443 5.6853C6.79981 6.78412 5.51809 8.3459 4.76121 10.1732C4.00433 12.0004 3.8063 14.0111 4.19215 15.9509C4.578 17.8907 5.53041 19.6725 6.92894 21.0711C8.32746 22.4696 10.1093 23.422 12.0491 23.8078C13.9889 24.1937 15.9996 23.9957 17.8268 23.2388C19.6541 22.4819 21.2159 21.2002 22.3147 19.5557C23.4135 17.9112 24 15.9778 24 14C23.9972 11.3487 22.9427 8.80678 21.068 6.93202C19.1932 5.05727 16.6513 4.0028 14 4ZM18.3904 12.2365L13.0058 17.6212C12.9343 17.6927 12.8495 17.7494 12.7561 17.7881C12.6627 17.8268 12.5626 17.8468 12.4615 17.8468C12.3605 17.8468 12.2604 17.8268 12.167 17.7881C12.0736 17.7494 11.9888 17.6927 11.9173 17.6212L9.60962 15.3135C9.46528 15.1691 9.38419 14.9734 9.38419 14.7692C9.38419 14.5651 9.46528 14.3693 9.60962 14.225C9.75396 14.0807 9.94972 13.9996 10.1538 13.9996C10.358 13.9996 10.5537 14.0807 10.6981 14.225L12.4615 15.9894L17.3019 11.1481C17.3734 11.0766 17.4582 11.0199 17.5516 10.9812C17.645 10.9426 17.7451 10.9226 17.8462 10.9226C17.9472 10.9226 18.0473 10.9426 18.1407 10.9812C18.2341 11.0199 18.3189 11.0766 18.3904 11.1481C18.4619 11.2195 18.5185 11.3044 18.5572 11.3978C18.5959 11.4911 18.6158 11.5912 18.6158 11.6923C18.6158 11.7934 18.5959 11.8935 18.5572 11.9868C18.5185 12.0802 18.4619 12.1651 18.3904 12.2365Z" fill="#DF41CF"/>
</svg>
