<svg width="119" height="24" viewBox="0 0 119 24" fill="none" xmlns="http://www.w3.org/2000/svg">
<g clip-path="url(#clip0_34_457)">
<path d="M6.64648 2.11106V2.11485C6.64648 2.11485 7.11124 5.68619 7.11124 11.7821C7.11124 17.8781 6.64648 21.4532 6.64648 21.4488V21.4526C9.02186 18.9217 10.479 15.5227 10.479 11.7828V11.7809C10.479 8.04099 9.02186 4.642 6.64648 2.11106Z" fill="white"/>
<path d="M6.7299 8.51326C6.23181 6.62311 5.29915 4.84217 4.00738 3.22412C2.89925 1.97475 1.55402 0.88447 0.0295585 0C1.50811 2.34596 2.50304 6.73359 2.50304 11.7595C2.50304 16.7854 1.51 21.1629 0.0345897 23.5114C0.0232695 23.5379 0.0113203 23.5644 0 23.5909C0.850278 23.0997 1.64521 22.5448 2.37411 21.9337C4.89036 19.5297 6.54563 16.6446 7.0104 13.5063C7.07706 12.947 7.11165 12.3775 7.11165 11.7999C7.11165 10.6679 6.97958 9.56818 6.73053 8.51263H6.7299V8.51326Z" fill="white"/>
<path d="M95.1552 7.20138C90.424 7.20138 86.6543 10.9217 86.6543 15.6035C86.6543 20.2853 90.412 23.9905 95.1432 23.9905C99.8745 23.9905 103.632 20.2816 103.632 15.6004C103.632 10.9192 99.8858 7.20201 95.1546 7.20201H95.1552V7.20138ZM95.1439 20.2184C92.4251 20.2184 90.7485 18.0966 90.7485 15.6035C90.7485 13.1105 92.4257 10.9855 95.1439 10.9855C97.862 10.9855 99.5393 13.1073 99.5393 15.6004C99.5393 18.0934 97.862 20.2184 95.1439 20.2184Z" fill="white"/>
<path d="M35.6501 7.20261C30.9579 7.20261 27.5656 11.0056 27.5649 15.6269C27.5649 20.1483 30.8113 24 35.525 24C38.9261 24 42.0222 21.9526 43.192 18.7639H39.0638C38.4242 19.6174 37.1715 20.3421 35.5508 20.3421C32.9679 20.3421 31.7937 18.4911 31.6579 17.0776H43.4636C43.5328 16.6224 43.5706 15.8668 43.5706 15.3415C43.5706 10.4469 39.9833 7.20261 35.6501 7.20261ZM31.6673 13.9924C31.6673 12.2405 33.388 10.8213 35.5099 10.8213C37.6318 10.8213 39.3538 12.2411 39.3538 13.9924H31.6667H31.6673Z" fill="white"/>
<path d="M111.793 7.20323C107.809 7.20323 104.588 10.4343 104.588 14.4356V23.5909H108.628L108.629 14.4412C108.629 12.3737 110.092 11.0561 111.787 11.0561C113.482 11.0561 114.935 12.3838 114.933 14.452L114.925 23.5909H119V14.4381C119 10.4368 115.779 7.20323 111.793 7.20323Z" fill="white"/>
<path d="M73.6736 7.71335C73.2277 7.50375 72.2598 7.20261 71.1548 7.20261C67.9694 7.20261 66.7311 9.66347 66.594 9.9362V7.6117H62.769L62.7583 23.5883L66.7959 23.5902V13.1363C66.9065 12.9204 68.0398 10.9798 70.3863 10.9798C71.2636 10.9798 72.0623 11.2512 72.2648 11.3503L73.6742 7.71271L73.6736 7.71335Z" fill="white"/>
<path d="M52.8862 7.20138C48.189 7.20138 44.3696 10.8807 44.3696 15.6736C44.3696 20.1616 47.7185 24.0088 52.2448 23.9994C54.5233 23.9949 56.3207 23.0145 57.2552 21.5934V23.5909H61.3456L61.3425 15.3927C61.3406 10.7733 57.5156 7.20138 52.8869 7.20138H52.8862ZM52.8586 20.2721C50.1398 20.2721 48.4625 18.1187 48.4625 15.6256C48.4625 13.1326 50.1405 10.9792 52.8586 10.9792C55.5767 10.9792 57.2546 13.1326 57.2546 15.6256C57.2546 18.1187 55.5767 20.2721 52.8586 20.2721Z" fill="white"/>
<path d="M80.9595 14.0517C78.2754 13.4785 77.2018 13.2424 77.2018 12.3264C77.2018 11.2897 78.5779 10.75 80.03 10.75C82.2349 10.75 83.8651 11.993 84.0462 12.1313L86.0587 9.16664C85.0285 8.47346 83.0695 7.202 79.9935 7.202C75.7233 7.202 73.2403 9.64265 73.2403 12.3642C73.2403 15.2291 75.9905 16.5827 79.1464 17.25C81.5607 17.7607 82.3003 17.957 82.3003 18.8125C82.3003 19.9791 80.9243 20.4501 79.5237 20.4501C77.3634 20.4501 75.5711 19.3295 74.4831 18.161L72.2354 21.0909C73.173 21.9861 75.6006 23.9981 79.4552 23.9981C83.3097 23.9981 86.3618 21.7973 86.3618 19.0688C86.3618 15.7683 84.1135 14.7241 80.9595 14.0505V14.0517Z" fill="white"/>
<path d="M20.8432 -1.43051e-05H12.8712L12.8687 23.5909H16.8804L16.8836 15.0909H20.8432C25.5071 15.0909 28.6271 11.8579 28.6271 7.54544C28.6271 3.23294 25.5071 -1.43051e-05 20.8432 -1.43051e-05ZM20.3394 11.2506H16.8836V3.84026H20.3394C23.0909 3.84026 24.5342 5.32259 24.5342 7.54544C24.5342 9.76829 23.0909 11.2506 20.3394 11.2506Z" fill="white"/>
</g>
<defs>
<clipPath id="clip0_34_457">
<rect width="119" height="24" fill="white"/>
</clipPath>
</defs>
</svg>
